<svg xmlns="http://www.w3.org/2000/svg" version="1.1" xmlns:xlink="http://www.w3.org/1999/xlink" xmlns:svgjs="http://svgjs.dev/svgjs" width="1500" height="284" viewBox="0 0 1500 284"><g transform="matrix(1,0,0,1,-0.9084522071641459,0.37951617618733735)"><svg viewBox="0 0 396 75" data-background-color="#333333" preserveAspectRatio="xMidYMid meet" height="284" width="1500" xmlns="http://www.w3.org/2000/svg" xmlns:xlink="http://www.w3.org/1999/xlink"><g id="tight-bounds" transform="matrix(1,0,0,1,0.24008861730862918,-0.09993036536508271)"><svg viewBox="0 0 395.52 75.20015470766805" height="75.20015470766805" width="395.52"><g><svg viewBox="0 0 395.52 75.20015470766805" height="75.20015470766805" width="395.52"><g><svg viewBox="0 0 395.52 75.20015470766805" height="75.20015470766805" width="395.52"><g id="textblocktransform"><svg viewBox="0 0 395.52 75.20015470766805" height="75.20015470766805" width="395.52" id="textblock"><g><svg viewBox="0 0 395.52 75.20015470766805" height="75.20015470766805" width="395.52"><path d="M394.594 16.129C392.735 8.323 387.435 6.153 387.435 6.153 371.165-1.887 350.86-0.154 332.619 1.001 300.414 1.048 268.339 2.766 236.208 3.687 168.767 3.827 100.749 1.517 33.643 7.215 27.339 8.963-6.54 7.558 1.121 17.128 3.129 21.109 10.456 25.527 10.232 29.18 11.236 29.82 12.631 28.353 13.226 29.274 15.309 31.756 18.711 30.585 21.501 32.053 17.614 35.971 20.403 39.234 23.062 42.653 18.377 43.543 12.371 43.121 9.675 46.072 9.396 48.211 7.89 47.805 6.235 47.711 5.026 47.649 2.59 47.883 2.999 48.554 4.394 50.849-1.594 52.176 2.162 54.424-0.422 56.859 3.948 58.967 3.353 61.605 3.278 62.136 3.687 62.589 4.338 62.714 7.22 63.385 3.018 64.696 3.464 66.117 33.029 75.827 65.104 69.114 95.394 73.579 103.259 70.457 97.346 74.688 100.489 74.032 102.943 73.267 104.728 76.436 107.499 74.641 107.927 74.126 107.276 72.908 108.8 73.142 109.6 73.267 110.307 73.236 110.418 72.518 110.586 71.441 109.117 72.112 108.726 71.55 112.947 68.709 111.906 75.468 115.866 75.187 115.68 74.36 114.528 73.173 116.889 73.33 119.232 72.143 119.306 71.16 121.389 73.829 121.463 74.407 121.835 74.813 122.43 75.094 128.938 72.19 135.409 76.124 142.233 74.813 146.417 73.376 150.433 75.593 154.672 75.047 156.16 74.61 157.666 73.829 159.098 75.14 176.632 75.421 195.319 74.251 211.943 75.187 256.364 73.439 303.836 75.905 350.674 73.595 361.719 72.705 373.192 71.441 383.958 70.426 383.958 70.426 392.679 67.647 392.679 55.158S394.538 44.23 394.817 34.285C395.096 24.341 396.398 23.935 394.538 16.129Z" opacity="1" fill="#7fc37e" data-fill-palette-color="tertiary"></path><g transform="matrix(1,0,0,1,55.76832,26.230666666666668)"><svg width="283.98335999999995" viewBox="2.85 -32.45 422.71 33.85" height="22.73882137433471" data-palette-color="#333333"><path d="M10.95 0.6Q8.85 0.6 7.1 0.23 5.35-0.15 4.23-0.6 3.1-1.05 3.1-1.1L3.1-1.1 2.85-1.6Q2.9-1.9 3.05-3.1 3.2-4.3 3.33-6.23 3.45-8.15 3.45-10.3L3.45-10.3 5.7-10.55Q5.7-6.8 6.2-5 6.7-3.2 8.05-2.53 9.4-1.85 12.2-1.85L12.2-1.85Q15.35-1.85 17.25-3.33 19.15-4.8 19.15-7.35L19.15-7.35Q19.15-8.85 18.13-10.05 17.1-11.25 15.7-12.1 14.3-12.95 11.55-14.4L11.55-14.4Q8.95-15.75 7.3-16.88 5.65-18 4.53-19.55 3.4-21.1 3.4-23.15L3.4-23.15Q3.4-25.75 4.93-27.88 6.45-30 9.08-31.23 11.7-32.45 14.9-32.45L14.9-32.45Q16.9-32.45 18.6-32.18 20.3-31.9 21.3-31.6 22.3-31.3 22.55-31.2L22.55-31.2 22.7-30.9Q22.65-30.6 22.45-29.5 22.25-28.4 22-26.45 21.75-24.5 21.6-22.45L21.6-22.45 19.65-22.25 19.35-22.5Q19.4-22.7 19.45-23.43 19.5-24.15 19.5-25.1L19.5-25.1Q19.5-27.75 18.2-28.75 16.9-29.75 13.55-29.75L13.55-29.75Q10.8-29.75 9.03-28.38 7.25-27 7.25-24.95L7.25-24.95Q7.25-22.95 8.97-21.48 10.7-20 14.05-18.25L14.05-18.25Q17.3-16.6 19-15.53 20.7-14.45 22-12.85 23.3-11.25 23.3-9.15L23.3-9.15Q23.3-6.35 21.73-4.13 20.15-1.9 17.35-0.65 14.55 0.6 10.95 0.6L10.95 0.6ZM43.05 0.7Q38-13 35.5-19.35L35.5-19.35 35.25-19.35Q35.05-16.95 34.52-10.4 34-3.85 34-3.2L34-3.2Q34-2.55 34.3-2.27 34.6-2 35.3-2L35.3-2 36.9-2 37-1.85 36.65 0.15Q36.2 0.15 34.92 0.08 33.65 0 32.4 0L32.4 0Q31.4 0 30.25 0.13 29.1 0.25 28.75 0.3L28.75 0.3 28.95-1.75Q30.25-1.9 30.8-2.53 31.35-3.15 31.55-4.7L31.55-4.7Q31.95-8.1 32.62-14.25 33.3-20.4 33.3-21.15L33.3-21.15Q33.3-22.15 32.52-22.63 31.75-23.1 29.85-23.2L29.85-23.2 29.7-23.45 30.05-25.1Q30.6-25.05 32-24.98 33.4-24.9 34.7-24.9L34.7-24.9Q35.8-24.9 36.72-24.95 37.65-25 37.95-25.05L37.95-25.05Q39.45-20.4 40.87-16.32 42.3-12.25 43.22-9.83 44.15-7.4 44.4-6.8L44.4-6.8 44.65-6.8Q45.2-8.2 47.12-13.35 49.05-18.5 51.3-24.95L51.3-24.95Q51.6-25 52.07-24.98 52.55-24.95 53-24.95L53-24.95Q53.55-24.9 54.6-24.9L54.6-24.9Q55.4-24.9 56.92-25 58.45-25.1 58.95-25.15L58.95-25.15 59.05-25 58.8-23.25Q57.05-23.05 56.35-22.58 55.65-22.1 55.65-21.1L55.65-21.1Q55.65-20.1 56-14.75 56.35-9.4 56.7-5.65L56.7-5.65Q56.95-3.4 57.35-2.7 57.75-2 58.7-2L58.7-2 59.85-2.05 59.95-1.9 59.6 0.1Q59.2 0.1 58.05 0.05 56.9 0 55.6 0L55.6 0Q54.3 0 52.65 0.15 51 0.3 50.9 0.3L50.9 0.3 51.1-1.75Q52.4-1.9 52.95-2.35 53.5-2.8 53.5-3.7L53.5-3.7Q53.5-4.6 52.97-10.85 52.45-17.1 52.25-19.35L52.25-19.35 52-19.35Q49.05-11.8 44.5 0.4L44.5 0.4 43.05 0.7ZM76.45 0.35L76.3 0.1 76.45-1.7Q78.55-1.85 79.27-2.15 80-2.45 80-3.15L80-3.15Q80-3.95 79.65-4.85L79.65-4.85 78.45-8.7Q77.45-8.75 74.3-8.75L74.3-8.75Q72.84-8.75 70-8.45L70-8.45 68.59-4.75Q68.25-3.6 68.25-3.35L68.25-3.35Q68.25-2.55 68.8-2.2 69.34-1.85 70.59-1.85L70.59-1.85 72.75-1.85 72.9-1.65 72.59 0.25Q72.09 0.2 70.32 0.1 68.55 0 66.84 0L66.84 0Q65.25 0 63.97 0.05 62.7 0.1 62.25 0.1L62.25 0.1 62.55-1.95Q63.65-2.1 64.3-2.73 64.95-3.35 65.59-4.85L65.59-4.85 73.45-24.7 77-25.35 77.34-25.3Q77.34-25.1 79.62-17.4 81.9-9.7 83.7-4.65L83.7-4.65Q84.2-3.2 84.97-2.63 85.75-2.05 87.45-1.9L87.45-1.9 87.55-1.7 87.3 0.1Q86.8 0.1 85.45 0.05 84.09 0 82.75 0L82.75 0Q80.7 0 78.84 0.15 77 0.3 76.45 0.35L76.45 0.35ZM70.8-10.8L74.2-10.8Q75.95-10.8 77.84-11L77.84-11 74.8-20.7 74.45-20.7 70.8-10.8ZM109.29 0.6Q108.19 0.6 107.04-0.38 105.89-1.35 104.94-3.05L104.94-3.05 100.74-10.4 97.49-10.4 97.39-5.05Q97.39-3.6 97.59-2.98 97.79-2.35 98.37-2.15 98.94-1.95 100.34-1.9L100.34-1.9 100.44-1.75 100.04 0.15Q99.44 0.1 97.87 0.08 96.29 0.05 94.69 0.05L94.69 0.05Q93.14 0.05 91.99 0.1 90.84 0.15 90.44 0.2L90.44 0.2 90.79-1.85Q92.64-2.1 93.24-2.7 93.84-3.3 93.84-4.95L93.84-4.95 93.89-20.9Q93.89-22.1 93.59-22.53 93.29-22.95 92.44-22.95L92.44-22.95 91.04-22.9 90.89-23.1 91.19-25Q91.69-25 93.09-24.95 94.49-24.9 95.89-24.9L95.89-24.9Q97.34-24.9 98.99-24.98 100.64-25.05 101.24-25.05L101.24-25.05Q105.29-25.05 107.59-23.38 109.89-21.7 109.89-18.75L109.89-18.75Q109.89-16.45 108.34-14.5 106.79-12.55 103.99-11.3L103.99-11.3 108.24-4.9Q109.44-3.1 110.54-2.35 111.64-1.6 113.19-1.6L113.19-1.6 113.39-1.35 113.14 0.2 109.29 0.6ZM101.64-12.6Q102.59-13 103.32-13.38 104.04-13.75 104.94-14.95 105.84-16.15 105.84-18.05L105.84-18.05Q105.84-22.9 98.69-22.9L98.69-22.9Q98.29-22.9 98.14-22.73 97.99-22.55 97.99-22L97.99-22Q97.59-15.9 97.59-13L97.59-13 101.64-12.6ZM119.69 0.2L120.04-1.8Q122.04-1.95 122.87-2.3 123.69-2.65 123.92-3.48 124.14-4.3 124.14-6.35L124.14-6.35 124.14-22.9Q120.99-22.8 119.89-22.55 118.79-22.3 118.27-21.38 117.74-20.45 117.39-17.9L117.39-17.9 115.04-17.75Q115.14-18.4 115.37-20.63 115.59-22.85 115.64-25L115.64-25 116.04-25.35 119.59-24.95 132.34-24.95 135.99-25.35 136.39-25Q136.44-22.8 136.64-20.65 136.84-18.5 136.94-17.9L136.94-17.9 134.64-17.75Q134.24-20.35 133.72-21.33 133.19-22.3 132.17-22.55 131.14-22.8 128.24-22.9L128.24-22.9Q127.99-20.5 127.79-14.93 127.59-9.35 127.59-4.65L127.59-4.65Q127.59-3.2 128.14-2.6 128.69-2 129.94-2L129.94-2Q130.84-2 131.42-2.05 131.99-2.1 132.14-2.1L132.14-2.1 132.29-1.95 131.94 0.15Q131.24 0.15 129.34 0.08 127.44 0 125.64 0L125.64 0Q123.84 0 122.09 0.08 120.34 0.15 119.69 0.2L119.69 0.2ZM140.79 0.3L141.09-1.75Q142.84-2.05 143.41-2.68 143.99-3.3 143.99-4.95L143.99-4.95 144.04-20.85Q144.04-22.1 143.74-22.53 143.44-22.95 142.59-22.95L142.59-22.95 141.19-22.9 141.04-23.1 141.34-25Q141.59-25 142.81-24.95 144.04-24.9 146.04-24.9L146.04-24.9Q147.39-24.9 149.09-24.98 150.79-25.05 151.49-25.05L151.49-25.05Q155.99-25.05 158.26-23.15 160.54-21.25 160.54-17.95L160.54-17.95Q160.54-15.75 159.19-13.75 157.84-11.75 155.66-10.53 153.49-9.3 151.04-9.3L151.04-9.3 147.59-9.3 147.54-5.8Q147.54-4.05 147.66-3.28 147.79-2.5 148.14-2.25 148.49-2 149.34-2L149.34-2Q149.99-2 150.64-2.05 151.29-2.1 151.49-2.1L151.49-2.1 151.59-1.9 151.19 0.1Q150.74 0.1 149.54 0.05 148.34 0 147.09 0L147.09 0Q145.44 0 143.14 0.1 140.84 0.2 140.79 0.3L140.79 0.3ZM151.84-11.45Q156.49-12.2 156.49-17.25L156.49-17.25Q156.49-20.05 154.74-21.38 152.99-22.7 149.19-22.7L149.19-22.7Q148.49-22.7 148.34-22.63 148.19-22.55 148.14-22.1L148.14-22.1Q147.74-15.75 147.69-12L147.69-12 151.84-11.45ZM164.54 0.45L164.79-1.6Q166.64-1.95 167.29-2.63 167.94-3.3 167.94-4.95L167.94-4.95 167.99-20.85Q167.99-22.1 167.69-22.53 167.39-22.95 166.49-22.95L166.49-22.95 165.14-22.9 164.99-23.1 165.29-25Q165.79-25 167.16-24.95 168.54-24.9 169.94-24.9L169.94-24.9Q171.09-24.9 172.69-25.05 174.29-25.2 174.79-25.25L174.79-25.25 174.59-23.2Q173.39-23 172.89-22.73 172.39-22.45 172.21-21.88 172.04-21.3 171.94-19.9L171.94-19.9 171.69-13.85 178.19-13.8Q180.84-13.8 183.94-14.15L183.94-14.15 183.99-20.85Q183.99-22.1 183.69-22.53 183.39-22.95 182.49-22.95L182.49-22.95 181.09-22.9 180.99-23.1 181.29-25Q181.74-24.95 183.04-24.93 184.34-24.9 185.59-24.9L185.59-24.9Q186.79-24.9 188.51-25.05 190.24-25.2 190.79-25.25L190.79-25.25 190.64-23.2Q189.09-23 188.59-22.58 188.09-22.15 188.04-21L188.04-21Q187.84-17.05 187.66-12.18 187.49-7.3 187.49-4.65L187.49-4.65Q187.49-3.05 187.84-2.53 188.19-2 189.24-2L189.24-2Q189.84-2 190.34-2.05 190.84-2.1 190.99-2.1L190.99-2.1 191.14-1.9 190.74 0.1Q190.19 0.1 188.66 0.05 187.14 0 185.49 0L185.49 0 180.49 0.05 180.89-1.95Q182.19-1.95 182.81-2.27 183.44-2.6 183.69-3.43 183.94-4.25 183.94-5.9L183.94-5.9 183.94-11.5 178.19-11.55Q177.39-11.55 174.94-11.38 172.49-11.2 171.64-11.15L171.64-11.15 171.49-4.65Q171.49-3.05 171.84-2.5 172.19-1.95 173.24-1.95L173.24-1.95Q173.84-1.95 174.34-2 174.84-2.05 174.99-2.1L174.99-2.1 175.09-1.9 174.74 0.1Q174.34 0.1 173.21 0.05 172.09 0 170.84 0L170.84 0Q168.99 0 166.79 0.15 164.59 0.3 164.54 0.45L164.54 0.45ZM207.33 0.45Q203.93 0.45 201.31-1.05 198.68-2.55 197.26-5.3 195.83-8.05 195.83-11.65L195.83-11.65Q195.83-15.55 197.61-18.68 199.38-21.8 202.46-23.58 205.53-25.35 209.33-25.35L209.33-25.35Q212.78-25.35 215.43-23.85 218.08-22.35 219.53-19.63 220.98-16.9 220.98-13.3L220.98-13.3Q220.98-9.4 219.21-6.28 217.43-3.15 214.31-1.35 211.18 0.45 207.33 0.45L207.33 0.45ZM208.53-1.95Q212.18-1.95 214.43-4.58 216.68-7.2 216.68-11.55L216.68-11.55Q216.68-14.85 215.61-17.35 214.53-19.85 212.56-21.2 210.58-22.55 207.98-22.55L207.98-22.55Q204.43-22.55 202.26-19.95 200.08-17.35 200.08-13L200.08-13Q200.08-9.7 201.13-7.2 202.18-4.7 204.11-3.33 206.03-1.95 208.53-1.95L208.53-1.95ZM246.13-6.8L246.08-21.25Q246.08-22.9 244.73-22.9L244.73-22.9 243.23-22.9 243.13-23.1 243.48-25.05Q243.93-25 245.18-24.95 246.43-24.9 247.73-24.9L247.73-24.9Q248.83-24.9 250.21-25.03 251.58-25.15 251.98-25.2L251.98-25.2 251.78-23.15Q250.33-22.95 249.71-22.38 249.08-21.8 249.03-20.65L249.03-20.65 248.43 0.85 246.48 1.4Q241.73-5.55 236.88-12.2 232.03-18.85 232.03-18.75L232.03-18.75 231.78-18.75 231.63-3.6Q231.63-2.65 231.93-2.3 232.23-1.95 232.93-1.95L232.93-1.95 234.93-2 235.08-1.85 234.68 0.15Q234.23 0.1 232.91 0.05 231.58 0 230.13 0L230.13 0Q228.98 0 227.68 0.13 226.38 0.25 225.98 0.3L225.98 0.3 226.23-1.75Q227.48-1.9 228.08-2.48 228.68-3.05 228.73-4.2L228.73-4.2 229.28-20.7Q229.28-21.95 228.56-22.43 227.83-22.9 225.78-23.15L225.78-23.15 225.58-23.4 225.93-25.1Q226.33-25.05 227.46-24.98 228.58-24.9 229.73-24.9L229.73-24.9Q230.83-24.9 231.68-24.95 232.53-25 232.78-25.05L232.78-25.05Q236.83-19.1 241.36-12.9 245.88-6.7 245.88-6.8L245.88-6.8 246.13-6.8ZM256.43 0.4L256.68-1.7Q258.53-1.9 259.18-2.6 259.83-3.3 259.83-5L259.83-5 259.88-20.85Q259.88-22.1 259.58-22.53 259.28-22.95 258.38-22.95L258.38-22.95 257.03-22.9 256.93-23.1 257.23-25Q257.83-25 259.58-24.95 261.33-24.9 263.38-24.9L263.38-24.9Q271.73-24.9 275.73-25.35L275.73-25.35 275.88-25.1Q275.78-24.55 275.43-22.6 275.08-20.65 274.93-18.4L274.93-18.4 272.53-18.2Q272.53-18.4 272.58-18.88 272.63-19.35 272.63-19.85L272.63-19.85Q272.63-21.15 272.25-21.68 271.88-22.2 270.7-22.38 269.53-22.55 266.63-22.55L266.63-22.55Q265.28-22.55 264.78-22.48 264.28-22.4 264.13-22.13 263.98-21.85 263.93-21.1L263.93-21.1 263.63-14 267.73-13.95Q268.63-13.95 270.38-14.13 272.13-14.3 272.68-14.35L272.68-14.35 272.88-14.1 272.28-11.5Q271.73-11.5 270.1-11.55 268.48-11.6 266.68-11.6L266.68-11.6Q265.28-11.6 263.53-11.35L263.53-11.35Q263.38-7.55 263.38-4.5L263.38-4.5Q263.38-3.35 263.55-2.9 263.73-2.45 264.35-2.3 264.98-2.15 266.43-2.15L266.43-2.15Q269.68-2.15 271.08-2.45 272.48-2.75 273.05-3.68 273.63-4.6 273.98-6.85L273.98-6.85 276.18-7.05 276.38-6.8Q276.23-6.25 275.85-4.23 275.48-2.2 275.28 0L275.28 0 274.98 0.25Q273.63 0.2 269.38 0.1 265.13 0 262.48 0L262.48 0Q260.43 0 258.68 0.18 256.93 0.35 256.43 0.4L256.43 0.4ZM305.62 0.5L305.47 0.15 305.67-1.8Q308.22-2 309.17-2.4 310.12-2.8 310.12-3.7L310.12-3.7Q310.12-4.7 309.67-6.1L309.67-6.1 308.02-11.55Q306.82-11.6 302.82-11.6L302.82-11.6Q300.42-11.6 297.37-11.2L297.37-11.2 295.52-6Q295.07-4.65 295.07-4.05L295.07-4.05Q295.07-2.95 295.77-2.48 296.47-2 298.07-2L298.07-2 300.92-2 301.02-1.8 300.72 0.35Q300.12 0.3 297.97 0.15 295.82 0 293.77 0L293.77 0Q291.92 0 290.35 0.05 288.77 0.1 288.27 0.15L288.27 0.15 288.67-2.2Q290.07-2.35 290.92-3.18 291.77-4 292.57-6.05L292.57-6.05 302.32-31.6 305.47-32.45 305.87-32.45Q306.17-31.25 307.4-26.9 308.62-22.55 310.4-16.6 312.17-10.65 313.82-5.65L313.82-5.65Q314.42-3.8 315.42-3.05 316.42-2.3 318.62-2.1L318.62-2.1 318.72-1.9 318.37 0.15Q317.77 0.15 316.2 0.08 314.62 0 313.07 0L313.07 0Q310.67 0 308.45 0.2 306.22 0.4 305.62 0.5L305.62 0.5ZM298.27-13.65L302.67-13.65Q304.47-13.65 307.32-13.9L307.32-13.9 303.37-27 303.02-27 298.27-13.65ZM339.77 0.6Q338.67 0.6 337.52-0.38 336.37-1.35 335.42-3.05L335.42-3.05 331.22-10.4 327.97-10.4 327.87-5.05Q327.87-3.6 328.07-2.98 328.27-2.35 328.84-2.15 329.42-1.95 330.82-1.9L330.82-1.9 330.92-1.75 330.52 0.15Q329.92 0.1 328.34 0.08 326.77 0.05 325.17 0.05L325.17 0.05Q323.62 0.05 322.47 0.1 321.32 0.15 320.92 0.2L320.92 0.2 321.27-1.85Q323.12-2.1 323.72-2.7 324.32-3.3 324.32-4.95L324.32-4.95 324.37-20.9Q324.37-22.1 324.07-22.53 323.77-22.95 322.92-22.95L322.92-22.95 321.52-22.9 321.37-23.1 321.67-25Q322.17-25 323.57-24.95 324.97-24.9 326.37-24.9L326.37-24.9Q327.82-24.9 329.47-24.98 331.12-25.05 331.72-25.05L331.72-25.05Q335.77-25.05 338.07-23.38 340.37-21.7 340.37-18.75L340.37-18.75Q340.37-16.45 338.82-14.5 337.27-12.55 334.47-11.3L334.47-11.3 338.72-4.9Q339.92-3.1 341.02-2.35 342.12-1.6 343.67-1.6L343.67-1.6 343.87-1.35 343.62 0.2 339.77 0.6ZM332.12-12.6Q333.07-13 333.79-13.38 334.52-13.75 335.42-14.95 336.32-16.15 336.32-18.05L336.32-18.05Q336.32-22.9 329.17-22.9L329.17-22.9Q328.77-22.9 328.62-22.73 328.47-22.55 328.47-22L328.47-22Q328.07-15.9 328.07-13L328.07-13 332.12-12.6ZM347.37 0.4L347.62-1.7Q349.47-1.9 350.12-2.6 350.77-3.3 350.77-5L350.77-5 350.82-20.85Q350.82-22.1 350.52-22.53 350.22-22.95 349.32-22.95L349.32-22.95 347.97-22.9 347.87-23.1 348.17-25Q348.77-25 350.52-24.95 352.27-24.9 354.32-24.9L354.32-24.9Q362.67-24.9 366.67-25.35L366.67-25.35 366.82-25.1Q366.72-24.55 366.37-22.6 366.02-20.65 365.87-18.4L365.87-18.4 363.47-18.2Q363.47-18.4 363.52-18.88 363.57-19.35 363.57-19.85L363.57-19.85Q363.57-21.15 363.19-21.68 362.82-22.2 361.64-22.38 360.47-22.55 357.57-22.55L357.57-22.55Q356.22-22.55 355.72-22.48 355.22-22.4 355.07-22.13 354.92-21.85 354.87-21.1L354.87-21.1 354.57-14 358.67-13.95Q359.57-13.95 361.32-14.13 363.07-14.3 363.62-14.35L363.62-14.35 363.82-14.1 363.22-11.5Q362.67-11.5 361.04-11.55 359.42-11.6 357.62-11.6L357.62-11.6Q356.22-11.6 354.47-11.35L354.47-11.35Q354.32-7.55 354.32-4.5L354.32-4.5Q354.32-3.35 354.49-2.9 354.67-2.45 355.29-2.3 355.92-2.15 357.37-2.15L357.37-2.15Q360.62-2.15 362.02-2.45 363.42-2.75 363.99-3.68 364.57-4.6 364.92-6.85L364.92-6.85 367.12-7.05 367.32-6.8Q367.17-6.25 366.79-4.23 366.42-2.2 366.22 0L366.22 0 365.92 0.25Q364.57 0.2 360.32 0.1 356.07 0 353.42 0L353.42 0Q351.37 0 349.62 0.18 347.87 0.35 347.37 0.4L347.37 0.4ZM393.16-6.8L393.11-21.25Q393.11-22.9 391.76-22.9L391.76-22.9 390.26-22.9 390.16-23.1 390.51-25.05Q390.96-25 392.21-24.95 393.46-24.9 394.76-24.9L394.76-24.9Q395.86-24.9 397.24-25.03 398.61-25.15 399.01-25.2L399.01-25.2 398.81-23.15Q397.36-22.95 396.74-22.38 396.11-21.8 396.06-20.65L396.06-20.65 395.46 0.85 393.51 1.4Q388.76-5.55 383.91-12.2 379.06-18.85 379.06-18.75L379.06-18.75 378.81-18.75 378.66-3.6Q378.66-2.65 378.96-2.3 379.26-1.95 379.96-1.95L379.96-1.95 381.96-2 382.11-1.85 381.71 0.15Q381.26 0.1 379.94 0.05 378.61 0 377.16 0L377.16 0Q376.01 0 374.71 0.13 373.41 0.25 373.01 0.3L373.01 0.3 373.26-1.75Q374.51-1.9 375.11-2.48 375.71-3.05 375.76-4.2L375.76-4.2 376.31-20.7Q376.31-21.95 375.59-22.43 374.86-22.9 372.81-23.15L372.81-23.15 372.61-23.4 372.96-25.1Q373.36-25.05 374.49-24.98 375.61-24.9 376.76-24.9L376.76-24.9Q377.86-24.9 378.71-24.95 379.56-25 379.81-25.05L379.81-25.05Q383.86-19.1 388.39-12.9 392.91-6.7 392.91-6.8L392.91-6.8 393.16-6.8ZM414.46 0.35L414.31 0.1 414.46-1.7Q416.56-1.85 417.29-2.15 418.01-2.45 418.01-3.15L418.01-3.15Q418.01-3.95 417.66-4.85L417.66-4.85 416.46-8.7Q415.46-8.75 412.31-8.75L412.31-8.75Q410.86-8.75 408.01-8.45L408.01-8.45 406.61-4.75Q406.26-3.6 406.26-3.35L406.26-3.35Q406.26-2.55 406.81-2.2 407.36-1.85 408.61-1.85L408.61-1.85 410.76-1.85 410.91-1.65 410.61 0.25Q410.11 0.2 408.34 0.1 406.56 0 404.86 0L404.86 0Q403.26 0 401.99 0.05 400.71 0.1 400.26 0.1L400.26 0.1 400.56-1.95Q401.66-2.1 402.31-2.73 402.96-3.35 403.61-4.85L403.61-4.85 411.46-24.7 415.01-25.35 415.36-25.3Q415.36-25.1 417.64-17.4 419.91-9.7 421.71-4.65L421.71-4.65Q422.21-3.2 422.99-2.63 423.76-2.05 425.46-1.9L425.46-1.9 425.56-1.7 425.31 0.1Q424.81 0.1 423.46 0.05 422.11 0 420.76 0L420.76 0Q418.71 0 416.86 0.15 415.01 0.3 414.46 0.35L414.46 0.35ZM408.81-10.8L412.21-10.8Q413.96-10.8 415.86-11L415.86-11 412.81-20.7 412.46-20.7 408.81-10.8Z" opacity="1" transform="matrix(1,0,0,1,0,0)" fill="#333333" class="wordmark-text-0" data-fill-palette-color="quaternary" id="text-0"></path></svg></g></svg></g></svg></g></svg></g><g></g></svg></g><defs></defs></svg><rect width="395.52" height="75.20015470766805" fill="none" stroke="none" visibility="hidden"></rect></g></svg></g></svg>